<?xml version="1.0"?>
<svg height="600" version="1.1" width="600" xmlns:xlink="http://www.w3.org/1999/xlink" xmlns="http://www.w3.org/2000/svg"><g><g stroke-dasharray="1 1" stroke="#caa"><line x1="120.58" x2="120.58" y1="550.00" y2="20.00" /><line x1="161.86" x2="161.86" y1="550.00" y2="20.00" /><line x1="191.16" x2="191.16" y1="550.00" y2="20.00" /><line x1="213.88" x2="213.88" y1="550.00" y2="20.00" /><line x1="232.44" x2="232.44" y1="550.00" y2="20.00" /><line x1="248.14" x2="248.14" y1="550.00" y2="20.00" /><line x1="261.74" x2="261.74" y1="550.00" y2="20.00" /><line x1="273.73" x2="273.73" y1="550.00" y2="20.00" /><line x1="355.04" x2="355.04" y1="550.00" y2="20.00" /><line x1="396.32" x2="396.32" y1="550.00" y2="20.00" /><line x1="425.61" x2="425.61" y1="550.00" y2="20.00" /><line x1="448.34" x2="448.34" y1="550.00" y2="20.00" /><line x1="466.90" x2="466.90" y1="550.00" y2="20.00" /><line x1="482.60" x2="482.60" y1="550.00" y2="20.00" /><line x1="496.19" x2="496.19" y1="550.00" y2="20.00" /><line x1="508.19" x2="508.19" y1="550.00" y2="20.00" /><line x1="589.49" x2="589.49" y1="550.00" y2="20.00" /><line x1="50.00" x2="50.00" y1="550.00" y2="20.00" /><line x1="284.46" x2="284.46" y1="550.00" y2="20.00" /><line x1="518.91" x2="518.91" y1="550.00" y2="20.00" /><line x1="50.00" x2="590.00" y1="496.89" y2="496.89" /><line x1="50.00" x2="590.00" y1="465.83" y2="465.83" /><line x1="50.00" x2="590.00" y1="443.79" y2="443.79" /><line x1="50.00" x2="590.00" y1="426.69" y2="426.69" /><line x1="50.00" x2="590.00" y1="412.72" y2="412.72" /><line x1="50.00" x2="590.00" y1="400.91" y2="400.91" /><line x1="50.00" x2="590.00" y1="390.68" y2="390.68" /><line x1="50.00" x2="590.00" y1="381.66" y2="381.66" /><line x1="50.00" x2="590.00" y1="320.48" y2="320.48" /><line x1="50.00" x2="590.00" y1="289.42" y2="289.42" /><line x1="50.00" x2="590.00" y1="267.38" y2="267.38" /><line x1="50.00" x2="590.00" y1="250.28" y2="250.28" /><line x1="50.00" x2="590.00" y1="236.31" y2="236.31" /><line x1="50.00" x2="590.00" y1="224.50" y2="224.50" /><line x1="50.00" x2="590.00" y1="214.27" y2="214.27" /><line x1="50.00" x2="590.00" y1="205.25" y2="205.25" /><line x1="50.00" x2="590.00" y1="144.07" y2="144.07" /><line x1="50.00" x2="590.00" y1="113.00" y2="113.00" /><line x1="50.00" x2="590.00" y1="90.96" y2="90.96" /><line x1="50.00" x2="590.00" y1="73.87" y2="73.87" /><line x1="50.00" x2="590.00" y1="59.90" y2="59.90" /><line x1="50.00" x2="590.00" y1="48.09" y2="48.09" /><line x1="50.00" x2="590.00" y1="37.86" y2="37.86" /><line x1="50.00" x2="590.00" y1="28.83" y2="28.83" /><line x1="50.00" x2="590.00" y1="550.00" y2="550.00" /><line x1="50.00" x2="590.00" y1="373.59" y2="373.59" /><line x1="50.00" x2="590.00" y1="197.17" y2="197.17" /><line x1="50.00" x2="590.00" y1="20.76" y2="20.76" /></g><g fill="#0af" stroke="none"><circle cx="120.58" cy="347.03" r="3" /><circle cx="191.16" cy="320.48" r="3" /><circle cx="232.44" cy="304.95" r="3" /><circle cx="261.74" cy="293.93" r="3" /><circle cx="284.46" cy="285.38" r="3" /><circle cx="303.02" cy="278.40" r="3" /><circle cx="318.72" cy="272.49" r="3" /><circle cx="332.31" cy="267.38" r="3" /><circle cx="344.31" cy="262.86" r="3" /><circle cx="355.04" cy="258.83" r="3" /><circle cx="364.74" cy="255.18" r="3" /><circle cx="373.60" cy="251.84" r="3" /><circle cx="381.75" cy="248.78" r="3" /><circle cx="389.30" cy="245.94" r="3" /><circle cx="396.32" cy="243.30" r="3" /><circle cx="402.89" cy="240.82" r="3" /><circle cx="409.07" cy="238.50" r="3" /><circle cx="414.89" cy="236.31" r="3" /><circle cx="420.39" cy="234.24" r="3" /><circle cx="425.61" cy="232.28" r="3" /><circle cx="430.58" cy="230.41" r="3" /><circle cx="435.32" cy="228.62" r="3" /><circle cx="439.84" cy="226.92" r="3" /><circle cx="444.18" cy="225.29" r="3" /><circle cx="448.34" cy="223.73" r="3" /><circle cx="452.33" cy="222.23" r="3" /><circle cx="456.17" cy="220.78" r="3" /><circle cx="459.87" cy="219.39" r="3" /><circle cx="463.45" cy="218.04" r="3" /><circle cx="466.90" cy="216.74" r="3" /><circle cx="470.24" cy="215.49" r="3" /><circle cx="473.47" cy="214.27" r="3" /><circle cx="476.60" cy="213.09" r="3" /><circle cx="479.64" cy="211.95" r="3" /><circle cx="482.60" cy="210.84" r="3" /><circle cx="485.46" cy="209.76" r="3" /><circle cx="488.25" cy="208.71" r="3" /><circle cx="490.97" cy="207.69" r="3" /><circle cx="493.61" cy="206.69" r="3" /><circle cx="496.19" cy="205.72" r="3" /><circle cx="498.71" cy="204.78" r="3" /><circle cx="501.16" cy="203.85" r="3" /><circle cx="503.56" cy="202.95" r="3" /><circle cx="505.90" cy="202.07" r="3" /><circle cx="508.19" cy="201.21" r="3" /><circle cx="510.42" cy="200.37" r="3" /><circle cx="512.61" cy="199.55" r="3" /><circle cx="514.76" cy="198.74" r="3" /><circle cx="516.86" cy="197.95" r="3" /><circle cx="518.91" cy="197.17" r="3" /><circle cx="520.93" cy="196.42" r="3" /><circle cx="522.91" cy="195.67" r="3" /><circle cx="524.85" cy="194.94" r="3" /><circle cx="526.75" cy="194.23" r="3" /><circle cx="528.62" cy="193.52" r="3" /><circle cx="530.45" cy="192.83" r="3" /><circle cx="532.26" cy="192.16" r="3" /><circle cx="534.03" cy="191.49" r="3" /><circle cx="535.77" cy="190.83" r="3" /><circle cx="537.48" cy="190.19" r="3" /><circle cx="539.16" cy="189.56" r="3" /><circle cx="540.82" cy="188.93" r="3" /><circle cx="542.45" cy="188.32" r="3" /><circle cx="544.05" cy="187.72" r="3" /><circle cx="545.63" cy="187.12" r="3" /><circle cx="547.18" cy="186.54" r="3" /><circle cx="548.71" cy="185.96" r="3" /><circle cx="550.22" cy="185.40" r="3" /><circle cx="551.71" cy="184.84" r="3" /><circle cx="553.17" cy="184.29" r="3" /><circle cx="554.62" cy="183.74" r="3" /><circle cx="556.04" cy="183.21" r="3" /><circle cx="557.45" cy="182.68" r="3" /><circle cx="558.83" cy="182.16" r="3" /><circle cx="560.20" cy="181.64" r="3" /><circle cx="561.55" cy="181.14" r="3" /><circle cx="562.88" cy="180.63" r="3" /><circle cx="564.19" cy="180.14" r="3" /><circle cx="565.49" cy="179.65" r="3" /><circle cx="566.77" cy="179.17" r="3" /><circle cx="568.04" cy="178.69" r="3" /><circle cx="569.29" cy="178.22" r="3" /><circle cx="570.52" cy="177.76" r="3" /><circle cx="571.74" cy="177.30" r="3" /><circle cx="572.94" cy="176.85" r="3" /><circle cx="574.13" cy="176.40" r="3" /><circle cx="575.31" cy="175.96" r="3" /><circle cx="576.48" cy="175.52" r="3" /><circle cx="577.63" cy="175.09" r="3" /><circle cx="578.76" cy="174.66" r="3" /><circle cx="579.89" cy="174.23" r="3" /><circle cx="581.00" cy="173.82" r="3" /><circle cx="582.10" cy="173.40" r="3" /><circle cx="583.19" cy="172.99" r="3" /><circle cx="584.27" cy="172.59" r="3" /><circle cx="585.34" cy="172.19" r="3" /><circle cx="586.39" cy="171.79" r="3" /><circle cx="587.44" cy="171.40" r="3" /><circle cx="588.47" cy="171.01" r="3" /></g><g fill="none" stroke="#f60"><polygon points="117.58,341.36 123.58,341.36 120.58,346.56" /><polygon points="188.16,298.06 194.16,298.06 191.16,303.26" /><polygon points="229.44,290.84 235.44,290.84 232.44,296.04" /><polygon points="258.74,255.49 264.74,255.49 261.74,260.69" /><polygon points="281.46,278.26 287.46,278.26 284.46,283.46" /><polygon points="300.02,321.24 306.02,321.24 303.02,326.43" /><polygon points="315.72,355.36 321.72,355.36 318.72,360.56" /><polygon points="329.31,185.18 335.31,185.18 332.31,190.38" /><polygon points="341.31,192.16 347.31,192.16 344.31,197.36" /><polygon points="352.04,139.15 358.04,139.15 355.04,144.35" /><polygon points="361.74,265.02 367.74,265.02 364.74,270.22" /><polygon points="370.60,127.03 376.60,127.03 373.60,132.22" /><polygon points="378.75,130.53 384.75,130.53 381.75,135.72" /><polygon points="386.30,166.22 392.30,166.22 389.30,171.41" /><polygon points="393.32,109.66 399.32,109.66 396.32,114.86" /><polygon points="399.89,190.36 405.89,190.36 402.89,195.56" /><polygon points="406.07,99.91 412.07,99.91 409.07,105.11" /><polygon points="411.89,113.35 417.89,113.35 414.89,118.55" /><polygon points="417.39,96.52 423.39,96.52 420.39,101.72" /><polygon points="422.61,157.18 428.61,157.18 425.61,162.37" /><polygon points="427.58,110.07 433.58,110.07 430.58,115.27" /><polygon points="432.32,115.39 438.32,115.39 435.32,120.59" /><polygon points="436.84,97.15 442.84,97.15 439.84,102.34" /><polygon points="441.18,121.50 447.18,121.50 444.18,126.70" /><polygon points="445.34,122.55 451.34,122.55 448.34,127.74" /><polygon points="449.33,91.66 455.33,91.66 452.33,96.86" /><polygon points="453.17,99.28 459.17,99.28 456.17,104.48" /><polygon points="456.87,206.11 462.87,206.11 459.87,211.31" /><polygon points="460.45,108.72 466.45,108.72 463.45,113.91" /><polygon points="463.90,104.37 469.90,104.37 466.90,109.56" /><polygon points="467.24,109.05 473.24,109.05 470.24,114.25" /><polygon points="470.47,51.94 476.47,51.94 473.47,57.14" /><polygon points="473.60,75.98 479.60,75.98 476.60,81.17" /><polygon points="476.64,55.43 482.64,55.43 479.64,60.63" /><polygon points="479.60,48.89 485.60,48.89 482.60,54.08" /><polygon points="482.46,407.25 488.46,407.25 485.46,412.45" /><polygon points="485.25,41.02 491.25,41.02 488.25,46.22" /><polygon points="487.97,193.45 493.97,193.45 490.97,198.64" /><polygon points="490.61,61.44 496.61,61.44 493.61,66.63" /><polygon points="493.19,60.00 499.19,60.00 496.19,65.19" /><polygon points="495.71,33.90 501.71,33.90 498.71,39.10" /><polygon points="498.16,273.95 504.16,273.95 501.16,279.15" /><polygon points="500.56,68.83 506.56,68.83 503.56,74.02" /><polygon points="502.90,32.44 508.90,32.44 505.90,37.64" /><polygon points="505.19,97.11 511.19,97.11 508.19,102.31" /><polygon points="507.42,38.99 513.42,38.99 510.42,44.19" /><polygon points="509.61,49.22 515.61,49.22 512.61,54.41" /><polygon points="511.76,186.33 517.76,186.33 514.76,191.53" /><polygon points="513.86,83.75 519.86,83.75 516.86,88.95" /><polygon points="515.91,60.98 521.91,60.98 518.91,66.17" /><polygon points="517.93,295.19 523.93,295.19 520.93,300.38" /><polygon points="519.91,108.07 525.91,108.07 522.91,113.27" /><polygon points="521.85,19.53 527.85,19.53 524.85,24.72" /><polygon points="523.75,42.09 529.75,42.09 526.75,47.29" /><polygon points="525.62,185.08 531.62,185.08 528.62,190.27" /><polygon points="527.45,141.72 533.45,141.72 530.45,146.91" /><polygon points="529.26,136.83 535.26,136.83 532.26,142.03" /><polygon points="531.03,106.75 537.03,106.75 534.03,111.94" /><polygon points="532.77,75.84 538.77,75.84 535.77,81.03" /><polygon points="534.48,128.47 540.48,128.47 537.48,133.67" /><polygon points="536.16,50.20 542.16,50.20 539.16,55.39" /><polygon points="537.82,70.37 543.82,70.37 540.82,75.57" /><polygon points="539.45,22.44 545.45,22.44 542.45,27.64" /><polygon points="541.05,169.66 547.05,169.66 544.05,174.86" /><polygon points="542.63,39.62 548.63,39.62 545.63,44.82" /><polygon points="544.18,46.81 550.18,46.81 547.18,52.00" /><polygon points="545.71,48.53 551.71,48.53 548.71,53.72" /><polygon points="547.22,16.85 553.22,16.85 550.22,22.05" /><polygon points="548.71,19.11 554.71,19.11 551.71,24.31" /><polygon points="550.17,16.63 556.17,16.63 553.17,21.82" /><polygon points="553.04,106.20 559.04,106.20 556.04,111.39" /><polygon points="555.83,93.77 561.83,93.77 558.83,98.97" /><polygon points="558.55,43.38 564.55,43.38 561.55,48.58" /><polygon points="559.88,113.52 565.88,113.52 562.88,118.72" /><polygon points="561.19,33.91 567.19,33.91 564.19,39.11" /><polygon points="565.04,68.87 571.04,68.87 568.04,74.06" /><polygon points="567.52,16.12 573.52,16.12 570.52,21.32" /><polygon points="569.94,22.05 575.94,22.05 572.94,27.25" /><polygon points="571.13,15.16 577.13,15.16 574.13,20.35" /><polygon points="573.48,65.49 579.48,65.49 576.48,70.69" /><polygon points="576.89,199.43 582.89,199.43 579.89,204.62" /><polygon points="579.10,33.72 585.10,33.72 582.10,38.92" /><polygon points="580.19,34.77 586.19,34.77 583.19,39.97" /><polygon points="581.27,18.06 587.27,18.06 584.27,23.26" /></g><g stroke="black"><line x1="50.00" x2="50.00" y1="550.00" y2="560.00" /><line x1="284.46" x2="284.46" y1="550.00" y2="560.00" /><line x1="518.91" x2="518.91" y1="550.00" y2="560.00" /><line x1="120.58" x2="120.58" y1="550.00" y2="555.00" /><line x1="161.86" x2="161.86" y1="550.00" y2="555.00" /><line x1="191.16" x2="191.16" y1="550.00" y2="555.00" /><line x1="213.88" x2="213.88" y1="550.00" y2="555.00" /><line x1="232.44" x2="232.44" y1="550.00" y2="555.00" /><line x1="248.14" x2="248.14" y1="550.00" y2="555.00" /><line x1="261.74" x2="261.74" y1="550.00" y2="555.00" /><line x1="273.73" x2="273.73" y1="550.00" y2="555.00" /><line x1="355.04" x2="355.04" y1="550.00" y2="555.00" /><line x1="396.32" x2="396.32" y1="550.00" y2="555.00" /><line x1="425.61" x2="425.61" y1="550.00" y2="555.00" /><line x1="448.34" x2="448.34" y1="550.00" y2="555.00" /><line x1="466.90" x2="466.90" y1="550.00" y2="555.00" /><line x1="482.60" x2="482.60" y1="550.00" y2="555.00" /><line x1="496.19" x2="496.19" y1="550.00" y2="555.00" /><line x1="508.19" x2="508.19" y1="550.00" y2="555.00" /><line x1="589.49" x2="589.49" y1="550.00" y2="555.00" /><g fill="black" font-family="Arial, sans-serif" font-size="10" stroke="none" text-anchor="middle"><text x="50.00" y="570.00">1.00</text><text x="284.46" y="570.00">10.00</text><text x="518.91" y="570.00">100.00</text></g><line x1="50.00" x2="590.00" y1="550.00" y2="550.00" /></g><g stroke="black"><line x1="50.00" x2="40.00" y1="550.00" y2="550.00" /><line x1="50.00" x2="40.00" y1="373.59" y2="373.59" /><line x1="50.00" x2="40.00" y1="197.17" y2="197.17" /><line x1="50.00" x2="40.00" y1="20.76" y2="20.76" /><line x1="50.00" x2="45.00" y1="496.89" y2="496.89" /><line x1="50.00" x2="45.00" y1="465.83" y2="465.83" /><line x1="50.00" x2="45.00" y1="443.79" y2="443.79" /><line x1="50.00" x2="45.00" y1="426.69" y2="426.69" /><line x1="50.00" x2="45.00" y1="412.72" y2="412.72" /><line x1="50.00" x2="45.00" y1="400.91" y2="400.91" /><line x1="50.00" x2="45.00" y1="390.68" y2="390.68" /><line x1="50.00" x2="45.00" y1="381.66" y2="381.66" /><line x1="50.00" x2="45.00" y1="320.48" y2="320.48" /><line x1="50.00" x2="45.00" y1="289.42" y2="289.42" /><line x1="50.00" x2="45.00" y1="267.38" y2="267.38" /><line x1="50.00" x2="45.00" y1="250.28" y2="250.28" /><line x1="50.00" x2="45.00" y1="236.31" y2="236.31" /><line x1="50.00" x2="45.00" y1="224.50" y2="224.50" /><line x1="50.00" x2="45.00" y1="214.27" y2="214.27" /><line x1="50.00" x2="45.00" y1="205.25" y2="205.25" /><line x1="50.00" x2="45.00" y1="144.07" y2="144.07" /><line x1="50.00" x2="45.00" y1="113.00" y2="113.00" /><line x1="50.00" x2="45.00" y1="90.96" y2="90.96" /><line x1="50.00" x2="45.00" y1="73.87" y2="73.87" /><line x1="50.00" x2="45.00" y1="59.90" y2="59.90" /><line x1="50.00" x2="45.00" y1="48.09" y2="48.09" /><line x1="50.00" x2="45.00" y1="37.86" y2="37.86" /><line x1="50.00" x2="45.00" y1="28.83" y2="28.83" /><g fill="black" font-family="Arial, sans-serif" font-size="10" stroke="none" text-anchor="end"><text x="35.00" y="550.00">0.10</text><text x="35.00" y="373.59">1.00</text><text x="35.00" y="197.17">10.00</text><text x="35.00" y="20.76">100.00</text></g><line x1="50.00" x2="50.00" y1="550.00" y2="20.00" /></g></g></svg>