<?xml version="1.0"?>
<svg height="600" version="1.1" width="600" xmlns:xlink="http://www.w3.org/1999/xlink" xmlns="http://www.w3.org/2000/svg"><g><g stroke-dasharray="1 1" stroke="#caa"><line x1="120.58" x2="120.58" y1="550.00" y2="20.00" /><line x1="161.86" x2="161.86" y1="550.00" y2="20.00" /><line x1="191.16" x2="191.16" y1="550.00" y2="20.00" /><line x1="213.88" x2="213.88" y1="550.00" y2="20.00" /><line x1="232.44" x2="232.44" y1="550.00" y2="20.00" /><line x1="248.14" x2="248.14" y1="550.00" y2="20.00" /><line x1="261.74" x2="261.74" y1="550.00" y2="20.00" /><line x1="273.73" x2="273.73" y1="550.00" y2="20.00" /><line x1="355.04" x2="355.04" y1="550.00" y2="20.00" /><line x1="396.32" x2="396.32" y1="550.00" y2="20.00" /><line x1="425.61" x2="425.61" y1="550.00" y2="20.00" /><line x1="448.34" x2="448.34" y1="550.00" y2="20.00" /><line x1="466.90" x2="466.90" y1="550.00" y2="20.00" /><line x1="482.60" x2="482.60" y1="550.00" y2="20.00" /><line x1="496.19" x2="496.19" y1="550.00" y2="20.00" /><line x1="508.19" x2="508.19" y1="550.00" y2="20.00" /><line x1="589.49" x2="589.49" y1="550.00" y2="20.00" /><line x1="50.00" x2="50.00" y1="550.00" y2="20.00" /><line x1="284.46" x2="284.46" y1="550.00" y2="20.00" /><line x1="518.91" x2="518.91" y1="550.00" y2="20.00" /><line x1="50.00" x2="590.00" y1="524.00" y2="524.00" /><line x1="50.00" x2="590.00" y1="470.95" y2="470.95" /><line x1="50.00" x2="590.00" y1="417.90" y2="417.90" /><line x1="50.00" x2="590.00" y1="364.84" y2="364.84" /><line x1="50.00" x2="590.00" y1="311.79" y2="311.79" /><line x1="50.00" x2="590.00" y1="258.74" y2="258.74" /><line x1="50.00" x2="590.00" y1="205.69" y2="205.69" /><line x1="50.00" x2="590.00" y1="152.63" y2="152.63" /><line x1="50.00" x2="590.00" y1="99.58" y2="99.58" /><line x1="50.00" x2="590.00" y1="46.53" y2="46.53" /><line x1="50.00" x2="590.00" y1="497.48" y2="497.48" /><line x1="50.00" x2="590.00" y1="444.42" y2="444.42" /><line x1="50.00" x2="590.00" y1="391.37" y2="391.37" /><line x1="50.00" x2="590.00" y1="338.32" y2="338.32" /><line x1="50.00" x2="590.00" y1="285.27" y2="285.27" /><line x1="50.00" x2="590.00" y1="232.21" y2="232.21" /><line x1="50.00" x2="590.00" y1="179.16" y2="179.16" /><line x1="50.00" x2="590.00" y1="126.11" y2="126.11" /><line x1="50.00" x2="590.00" y1="73.05" y2="73.05" /><line x1="50.00" x2="590.00" y1="20.00" y2="20.00" /></g><g fill="#0af" stroke="none"><circle cx="120.58" cy="543.03" r="3" /><circle cx="191.16" cy="539.92" r="3" /><circle cx="232.44" cy="537.54" r="3" /><circle cx="261.74" cy="535.52" r="3" /><circle cx="284.46" cy="533.75" r="3" /><circle cx="303.02" cy="532.15" r="3" /><circle cx="318.72" cy="530.68" r="3" /><circle cx="332.31" cy="529.31" r="3" /><circle cx="344.31" cy="528.02" r="3" /><circle cx="355.04" cy="526.80" r="3" /><circle cx="364.74" cy="525.65" r="3" /><circle cx="373.60" cy="524.54" r="3" /><circle cx="381.75" cy="523.48" r="3" /><circle cx="389.30" cy="522.46" r="3" /><circle cx="396.32" cy="521.47" r="3" /><circle cx="402.89" cy="520.52" r="3" /><circle cx="409.07" cy="519.60" r="3" /><circle cx="414.89" cy="518.70" r="3" /><circle cx="420.39" cy="517.83" r="3" /><circle cx="425.61" cy="516.98" r="3" /><circle cx="430.58" cy="516.15" r="3" /><circle cx="435.32" cy="515.34" r="3" /><circle cx="439.84" cy="514.55" r="3" /><circle cx="444.18" cy="513.77" r="3" /><circle cx="448.34" cy="513.02" r="3" /><circle cx="452.33" cy="512.27" r="3" /><circle cx="456.17" cy="511.54" r="3" /><circle cx="459.87" cy="510.83" r="3" /><circle cx="463.45" cy="510.13" r="3" /><circle cx="466.90" cy="509.44" r="3" /><circle cx="470.24" cy="508.76" r="3" /><circle cx="473.47" cy="508.09" r="3" /><circle cx="476.60" cy="507.43" r="3" /><circle cx="479.64" cy="506.78" r="3" /><circle cx="482.60" cy="506.14" r="3" /><circle cx="485.46" cy="505.51" r="3" /><circle cx="488.25" cy="504.89" r="3" /><circle cx="490.97" cy="504.28" r="3" /><circle cx="493.61" cy="503.68" r="3" /><circle cx="496.19" cy="503.08" r="3" /><circle cx="498.71" cy="502.49" r="3" /><circle cx="501.16" cy="501.91" r="3" /><circle cx="503.56" cy="501.33" r="3" /><circle cx="505.90" cy="500.76" r="3" /><circle cx="508.19" cy="500.20" r="3" /><circle cx="510.42" cy="499.64" r="3" /><circle cx="512.61" cy="499.09" r="3" /><circle cx="514.76" cy="498.55" r="3" /><circle cx="516.86" cy="498.01" r="3" /><circle cx="518.91" cy="497.48" r="3" /><circle cx="520.93" cy="496.95" r="3" /><circle cx="522.91" cy="496.43" r="3" /><circle cx="524.85" cy="495.91" r="3" /><circle cx="526.75" cy="495.40" r="3" /><circle cx="528.62" cy="494.89" r="3" /><circle cx="530.45" cy="494.38" r="3" /><circle cx="532.26" cy="493.89" r="3" /><circle cx="534.03" cy="493.39" r="3" /><circle cx="535.77" cy="492.90" r="3" /><circle cx="537.48" cy="492.41" r="3" /><circle cx="539.16" cy="491.93" r="3" /><circle cx="540.82" cy="491.45" r="3" /><circle cx="542.45" cy="490.98" r="3" /><circle cx="544.05" cy="490.51" r="3" /><circle cx="545.63" cy="490.04" r="3" /><circle cx="547.18" cy="489.58" r="3" /><circle cx="548.71" cy="489.12" r="3" /><circle cx="550.22" cy="488.66" r="3" /><circle cx="551.71" cy="488.21" r="3" /><circle cx="553.17" cy="487.76" r="3" /><circle cx="554.62" cy="487.31" r="3" /><circle cx="556.04" cy="486.87" r="3" /><circle cx="557.45" cy="486.43" r="3" /><circle cx="558.83" cy="485.99" r="3" /><circle cx="560.20" cy="485.55" r="3" /><circle cx="561.55" cy="485.12" r="3" /><circle cx="562.88" cy="484.69" r="3" /><circle cx="564.19" cy="484.27" r="3" /><circle cx="565.49" cy="483.84" r="3" /><circle cx="566.77" cy="483.42" r="3" /><circle cx="568.04" cy="483.01" r="3" /><circle cx="569.29" cy="482.59" r="3" /><circle cx="570.52" cy="482.18" r="3" /><circle cx="571.74" cy="481.77" r="3" /><circle cx="572.94" cy="481.36" r="3" /><circle cx="574.13" cy="480.95" r="3" /><circle cx="575.31" cy="480.55" r="3" /><circle cx="576.48" cy="480.15" r="3" /><circle cx="577.63" cy="479.75" r="3" /><circle cx="578.76" cy="479.35" r="3" /><circle cx="579.89" cy="478.96" r="3" /><circle cx="581.00" cy="478.57" r="3" /><circle cx="582.10" cy="478.18" r="3" /><circle cx="583.19" cy="477.79" r="3" /><circle cx="584.27" cy="477.40" r="3" /><circle cx="585.34" cy="477.02" r="3" /><circle cx="586.39" cy="476.64" r="3" /><circle cx="587.44" cy="476.26" r="3" /><circle cx="588.47" cy="475.88" r="3" /></g><g fill="none" stroke="#f60"><polygon points="117.58,538.36 123.58,538.36 120.58,543.55" /><polygon points="229.44,538.12 235.44,538.12 232.44,543.32" /><polygon points="258.74,535.12 264.74,535.12 261.74,540.32" /><polygon points="281.46,522.77 287.46,522.77 284.46,527.97" /><polygon points="300.02,503.95 306.02,503.95 303.02,509.15" /><polygon points="315.72,498.50 321.72,498.50 318.72,503.69" /><polygon points="329.31,511.63 335.31,511.63 332.31,516.83" /><polygon points="341.31,475.83 347.31,475.83 344.31,481.02" /><polygon points="352.04,491.98 358.04,491.98 355.04,497.17" /><polygon points="361.74,511.64 367.74,511.64 364.74,516.84" /><polygon points="370.60,512.78 376.60,512.78 373.60,517.97" /><polygon points="378.75,464.94 384.75,464.94 381.75,470.13" /><polygon points="386.30,412.37 392.30,412.37 389.30,417.57" /><polygon points="393.32,410.84 399.32,410.84 396.32,416.04" /><polygon points="399.89,474.53 405.89,474.53 402.89,479.73" /><polygon points="406.07,475.48 412.07,475.48 409.07,480.67" /><polygon points="411.89,436.23 417.89,436.23 414.89,441.43" /><polygon points="417.39,493.18 423.39,493.18 420.39,498.37" /><polygon points="422.61,406.31 428.61,406.31 425.61,411.51" /><polygon points="427.58,367.70 433.58,367.70 430.58,372.90" /><polygon points="432.32,473.31 438.32,473.31 435.32,478.51" /><polygon points="436.84,398.75 442.84,398.75 439.84,403.95" /><polygon points="441.18,300.90 447.18,300.90 444.18,306.10" /><polygon points="445.34,335.68 451.34,335.68 448.34,340.87" /><polygon points="449.33,292.75 455.33,292.75 452.33,297.94" /><polygon points="453.17,408.60 459.17,408.60 456.17,413.80" /><polygon points="456.87,281.65 462.87,281.65 459.87,286.84" /><polygon points="460.45,319.34 466.45,319.34 463.45,324.54" /><polygon points="463.90,436.67 469.90,436.67 466.90,441.86" /><polygon points="467.24,484.36 473.24,484.36 470.24,489.55" /><polygon points="470.47,283.37 476.47,283.37 473.47,288.57" /><polygon points="473.60,464.79 479.60,464.79 476.60,469.98" /><polygon points="476.64,374.33 482.64,374.33 479.64,379.53" /><polygon points="479.60,345.23 485.60,345.23 482.60,350.43" /><polygon points="482.46,269.16 488.46,269.16 485.46,274.36" /><polygon points="485.25,358.83 491.25,358.83 488.25,364.03" /><polygon points="487.97,403.24 493.97,403.24 490.97,408.44" /><polygon points="490.61,264.94 496.61,264.94 493.61,270.13" /><polygon points="493.19,329.94 499.19,329.94 496.19,335.13" /><polygon points="495.71,151.29 501.71,151.29 498.71,156.49" /><polygon points="498.16,128.18 504.16,128.18 501.16,133.38" /><polygon points="500.56,514.52 506.56,514.52 503.56,519.72" /><polygon points="502.90,395.00 508.90,395.00 505.90,400.20" /><polygon points="505.19,110.71 511.19,110.71 508.19,115.91" /><polygon points="507.42,407.60 513.42,407.60 510.42,412.80" /><polygon points="509.61,380.32 515.61,380.32 512.61,385.52" /><polygon points="511.76,434.78 517.76,434.78 514.76,439.98" /><polygon points="513.86,295.52 519.86,295.52 516.86,300.72" /><polygon points="515.91,33.33 521.91,33.33 518.91,38.52" /><polygon points="517.93,269.89 523.93,269.89 520.93,275.09" /><polygon points="519.91,319.49 525.91,319.49 522.91,324.69" /><polygon points="521.85,110.69 527.85,110.69 524.85,115.88" /><polygon points="523.75,64.61 529.75,64.61 526.75,69.80" /><polygon points="525.62,48.10 531.62,48.10 528.62,53.30" /><polygon points="527.45,538.15 533.45,538.15 530.45,543.35" /><polygon points="529.26,134.05 535.26,134.05 532.26,139.25" /><polygon points="531.03,56.82 537.03,56.82 534.03,62.02" /><polygon points="532.77,385.85 538.77,385.85 535.77,391.05" /><polygon points="534.48,51.98 540.48,51.98 537.48,57.18" /><polygon points="536.16,104.20 542.16,104.20 539.16,109.39" /><polygon points="539.45,536.34 545.45,536.34 542.45,541.53" /><polygon points="541.05,363.12 547.05,363.12 544.05,368.32" /><polygon points="542.63,242.47 548.63,242.47 545.63,247.67" /><polygon points="544.18,473.16 550.18,473.16 547.18,478.35" /><polygon points="545.71,72.21 551.71,72.21 548.71,77.41" /><polygon points="547.22,130.55 553.22,130.55 550.22,135.74" /><polygon points="551.62,325.65 557.62,325.65 554.62,330.84" /><polygon points="554.45,276.06 560.45,276.06 557.45,281.26" /><polygon points="555.83,275.09 561.83,275.09 558.83,280.28" /><polygon points="558.55,420.72 564.55,420.72 561.55,425.91" /><polygon points="559.88,399.75 565.88,399.75 562.88,404.95" /><polygon points="561.19,34.14 567.19,34.14 564.19,39.34" /><polygon points="562.49,149.08 568.49,149.08 565.49,154.28" /><polygon points="565.04,200.63 571.04,200.63 568.04,205.83" /><polygon points="568.74,218.05 574.74,218.05 571.74,223.25" /><polygon points="569.94,236.78 575.94,236.78 572.94,241.98" /><polygon points="571.13,329.81 577.13,329.81 574.13,335.00" /><polygon points="572.31,160.13 578.31,160.13 575.31,165.32" /><polygon points="573.48,159.12 579.48,159.12 576.48,164.32" /><polygon points="574.63,253.24 580.63,253.24 577.63,258.44" /><polygon points="576.89,220.05 582.89,220.05 579.89,225.25" /><polygon points="579.10,103.90 585.10,103.90 582.10,109.09" /><polygon points="581.27,117.18 587.27,117.18 584.27,122.38" /><polygon points="585.47,398.96 591.47,398.96 588.47,404.16" /></g><g stroke="black"><line x1="50.00" x2="50.00" y1="550.00" y2="560.00" /><line x1="284.46" x2="284.46" y1="550.00" y2="560.00" /><line x1="518.91" x2="518.91" y1="550.00" y2="560.00" /><line x1="120.58" x2="120.58" y1="550.00" y2="555.00" /><line x1="161.86" x2="161.86" y1="550.00" y2="555.00" /><line x1="191.16" x2="191.16" y1="550.00" y2="555.00" /><line x1="213.88" x2="213.88" y1="550.00" y2="555.00" /><line x1="232.44" x2="232.44" y1="550.00" y2="555.00" /><line x1="248.14" x2="248.14" y1="550.00" y2="555.00" /><line x1="261.74" x2="261.74" y1="550.00" y2="555.00" /><line x1="273.73" x2="273.73" y1="550.00" y2="555.00" /><line x1="355.04" x2="355.04" y1="550.00" y2="555.00" /><line x1="396.32" x2="396.32" y1="550.00" y2="555.00" /><line x1="425.61" x2="425.61" y1="550.00" y2="555.00" /><line x1="448.34" x2="448.34" y1="550.00" y2="555.00" /><line x1="466.90" x2="466.90" y1="550.00" y2="555.00" /><line x1="482.60" x2="482.60" y1="550.00" y2="555.00" /><line x1="496.19" x2="496.19" y1="550.00" y2="555.00" /><line x1="508.19" x2="508.19" y1="550.00" y2="555.00" /><line x1="589.49" x2="589.49" y1="550.00" y2="555.00" /><g fill="black" font-family="Arial, sans-serif" font-size="10" stroke="none" text-anchor="middle"><text x="50.00" y="570.00">1.00</text><text x="284.46" y="570.00">10.00</text><text x="518.91" y="570.00">100.00</text></g><line x1="50.00" x2="590.00" y1="550.00" y2="550.00" /></g><g stroke="black"><line x1="50.00" x2="40.00" y1="497.48" y2="497.48" /><line x1="50.00" x2="40.00" y1="444.42" y2="444.42" /><line x1="50.00" x2="40.00" y1="391.37" y2="391.37" /><line x1="50.00" x2="40.00" y1="338.32" y2="338.32" /><line x1="50.00" x2="40.00" y1="285.27" y2="285.27" /><line x1="50.00" x2="40.00" y1="232.21" y2="232.21" /><line x1="50.00" x2="40.00" y1="179.16" y2="179.16" /><line x1="50.00" x2="40.00" y1="126.11" y2="126.11" /><line x1="50.00" x2="40.00" y1="73.05" y2="73.05" /><line x1="50.00" x2="40.00" y1="20.00" y2="20.00" /><line x1="50.00" x2="45.00" y1="524.00" y2="524.00" /><line x1="50.00" x2="45.00" y1="470.95" y2="470.95" /><line x1="50.00" x2="45.00" y1="417.90" y2="417.90" /><line x1="50.00" x2="45.00" y1="364.84" y2="364.84" /><line x1="50.00" x2="45.00" y1="311.79" y2="311.79" /><line x1="50.00" x2="45.00" y1="258.74" y2="258.74" /><line x1="50.00" x2="45.00" y1="205.69" y2="205.69" /><line x1="50.00" x2="45.00" y1="152.63" y2="152.63" /><line x1="50.00" x2="45.00" y1="99.58" y2="99.58" /><line x1="50.00" x2="45.00" y1="46.53" y2="46.53" /><g fill="black" font-family="Arial, sans-serif" font-size="10" stroke="none" text-anchor="end"><text x="35.00" y="497.48">10.00</text><text x="35.00" y="444.42">20.00</text><text x="35.00" y="391.37">30.00</text><text x="35.00" y="338.32">40.00</text><text x="35.00" y="285.27">50.00</text><text x="35.00" y="232.21">60.00</text><text x="35.00" y="179.16">70.00</text><text x="35.00" y="126.11">80.00</text><text x="35.00" y="73.05">90.00</text><text x="35.00" y="20.00">100.00</text></g><line x1="50.00" x2="50.00" y1="550.00" y2="20.00" /></g></g></svg>