<?xml version="1.0"?>
<svg height="600" version="1.1" width="600" xmlns:xlink="http://www.w3.org/1999/xlink" xmlns="http://www.w3.org/2000/svg"><g><g stroke-dasharray="1 1" stroke="#caa"><line x1="120.58" x2="120.58" y1="550.00" y2="20.00" /><line x1="161.86" x2="161.86" y1="550.00" y2="20.00" /><line x1="191.16" x2="191.16" y1="550.00" y2="20.00" /><line x1="213.88" x2="213.88" y1="550.00" y2="20.00" /><line x1="232.44" x2="232.44" y1="550.00" y2="20.00" /><line x1="248.14" x2="248.14" y1="550.00" y2="20.00" /><line x1="261.74" x2="261.74" y1="550.00" y2="20.00" /><line x1="273.73" x2="273.73" y1="550.00" y2="20.00" /><line x1="355.04" x2="355.04" y1="550.00" y2="20.00" /><line x1="396.32" x2="396.32" y1="550.00" y2="20.00" /><line x1="425.61" x2="425.61" y1="550.00" y2="20.00" /><line x1="448.34" x2="448.34" y1="550.00" y2="20.00" /><line x1="466.90" x2="466.90" y1="550.00" y2="20.00" /><line x1="482.60" x2="482.60" y1="550.00" y2="20.00" /><line x1="496.19" x2="496.19" y1="550.00" y2="20.00" /><line x1="508.19" x2="508.19" y1="550.00" y2="20.00" /><line x1="589.49" x2="589.49" y1="550.00" y2="20.00" /><line x1="50.00" x2="50.00" y1="550.00" y2="20.00" /><line x1="284.46" x2="284.46" y1="550.00" y2="20.00" /><line x1="518.91" x2="518.91" y1="550.00" y2="20.00" /><line x1="50.00" x2="590.00" y1="524.00" y2="524.00" /><line x1="50.00" x2="590.00" y1="470.95" y2="470.95" /><line x1="50.00" x2="590.00" y1="417.90" y2="417.90" /><line x1="50.00" x2="590.00" y1="364.84" y2="364.84" /><line x1="50.00" x2="590.00" y1="311.79" y2="311.79" /><line x1="50.00" x2="590.00" y1="258.74" y2="258.74" /><line x1="50.00" x2="590.00" y1="205.69" y2="205.69" /><line x1="50.00" x2="590.00" y1="152.63" y2="152.63" /><line x1="50.00" x2="590.00" y1="99.58" y2="99.58" /><line x1="50.00" x2="590.00" y1="46.53" y2="46.53" /><line x1="50.00" x2="590.00" y1="497.48" y2="497.48" /><line x1="50.00" x2="590.00" y1="444.42" y2="444.42" /><line x1="50.00" x2="590.00" y1="391.37" y2="391.37" /><line x1="50.00" x2="590.00" y1="338.32" y2="338.32" /><line x1="50.00" x2="590.00" y1="285.27" y2="285.27" /><line x1="50.00" x2="590.00" y1="232.21" y2="232.21" /><line x1="50.00" x2="590.00" y1="179.16" y2="179.16" /><line x1="50.00" x2="590.00" y1="126.11" y2="126.11" /><line x1="50.00" x2="590.00" y1="73.05" y2="73.05" /><line x1="50.00" x2="590.00" y1="20.00" y2="20.00" /></g><g fill="#0af" stroke="none"><circle cx="120.58" cy="543.03" r="3" /><circle cx="191.16" cy="539.92" r="3" /><circle cx="232.44" cy="537.54" r="3" /><circle cx="261.74" cy="535.52" r="3" /><circle cx="284.46" cy="533.75" r="3" /><circle cx="303.02" cy="532.15" r="3" /><circle cx="318.72" cy="530.68" r="3" /><circle cx="332.31" cy="529.31" r="3" /><circle cx="344.31" cy="528.02" r="3" /><circle cx="355.04" cy="526.80" r="3" /><circle cx="364.74" cy="525.65" r="3" /><circle cx="373.60" cy="524.54" r="3" /><circle cx="381.75" cy="523.48" r="3" /><circle cx="389.30" cy="522.46" r="3" /><circle cx="396.32" cy="521.47" r="3" /><circle cx="402.89" cy="520.52" r="3" /><circle cx="409.07" cy="519.60" r="3" /><circle cx="414.89" cy="518.70" r="3" /><circle cx="420.39" cy="517.83" r="3" /><circle cx="425.61" cy="516.98" r="3" /><circle cx="430.58" cy="516.15" r="3" /><circle cx="435.32" cy="515.34" r="3" /><circle cx="439.84" cy="514.55" r="3" /><circle cx="444.18" cy="513.77" r="3" /><circle cx="448.34" cy="513.02" r="3" /><circle cx="452.33" cy="512.27" r="3" /><circle cx="456.17" cy="511.54" r="3" /><circle cx="459.87" cy="510.83" r="3" /><circle cx="463.45" cy="510.13" r="3" /><circle cx="466.90" cy="509.44" r="3" /><circle cx="470.24" cy="508.76" r="3" /><circle cx="473.47" cy="508.09" r="3" /><circle cx="476.60" cy="507.43" r="3" /><circle cx="479.64" cy="506.78" r="3" /><circle cx="482.60" cy="506.14" r="3" /><circle cx="485.46" cy="505.51" r="3" /><circle cx="488.25" cy="504.89" r="3" /><circle cx="490.97" cy="504.28" r="3" /><circle cx="493.61" cy="503.68" r="3" /><circle cx="496.19" cy="503.08" r="3" /><circle cx="498.71" cy="502.49" r="3" /><circle cx="501.16" cy="501.91" r="3" /><circle cx="503.56" cy="501.33" r="3" /><circle cx="505.90" cy="500.76" r="3" /><circle cx="508.19" cy="500.20" r="3" /><circle cx="510.42" cy="499.64" r="3" /><circle cx="512.61" cy="499.09" r="3" /><circle cx="514.76" cy="498.55" r="3" /><circle cx="516.86" cy="498.01" r="3" /><circle cx="518.91" cy="497.48" r="3" /><circle cx="520.93" cy="496.95" r="3" /><circle cx="522.91" cy="496.43" r="3" /><circle cx="524.85" cy="495.91" r="3" /><circle cx="526.75" cy="495.40" r="3" /><circle cx="528.62" cy="494.89" r="3" /><circle cx="530.45" cy="494.38" r="3" /><circle cx="532.26" cy="493.89" r="3" /><circle cx="534.03" cy="493.39" r="3" /><circle cx="535.77" cy="492.90" r="3" /><circle cx="537.48" cy="492.41" r="3" /><circle cx="539.16" cy="491.93" r="3" /><circle cx="540.82" cy="491.45" r="3" /><circle cx="542.45" cy="490.98" r="3" /><circle cx="544.05" cy="490.51" r="3" /><circle cx="545.63" cy="490.04" r="3" /><circle cx="547.18" cy="489.58" r="3" /><circle cx="548.71" cy="489.12" r="3" /><circle cx="550.22" cy="488.66" r="3" /><circle cx="551.71" cy="488.21" r="3" /><circle cx="553.17" cy="487.76" r="3" /><circle cx="554.62" cy="487.31" r="3" /><circle cx="556.04" cy="486.87" r="3" /><circle cx="557.45" cy="486.43" r="3" /><circle cx="558.83" cy="485.99" r="3" /><circle cx="560.20" cy="485.55" r="3" /><circle cx="561.55" cy="485.12" r="3" /><circle cx="562.88" cy="484.69" r="3" /><circle cx="564.19" cy="484.27" r="3" /><circle cx="565.49" cy="483.84" r="3" /><circle cx="566.77" cy="483.42" r="3" /><circle cx="568.04" cy="483.01" r="3" /><circle cx="569.29" cy="482.59" r="3" /><circle cx="570.52" cy="482.18" r="3" /><circle cx="571.74" cy="481.77" r="3" /><circle cx="572.94" cy="481.36" r="3" /><circle cx="574.13" cy="480.95" r="3" /><circle cx="575.31" cy="480.55" r="3" /><circle cx="576.48" cy="480.15" r="3" /><circle cx="577.63" cy="479.75" r="3" /><circle cx="578.76" cy="479.35" r="3" /><circle cx="579.89" cy="478.96" r="3" /><circle cx="581.00" cy="478.57" r="3" /><circle cx="582.10" cy="478.18" r="3" /><circle cx="583.19" cy="477.79" r="3" /><circle cx="584.27" cy="477.40" r="3" /><circle cx="585.34" cy="477.02" r="3" /><circle cx="586.39" cy="476.64" r="3" /><circle cx="587.44" cy="476.26" r="3" /><circle cx="588.47" cy="475.88" r="3" /></g><g fill="none" stroke="#f60"><polygon points="117.58,537.78 123.58,537.78 120.58,542.98" /><polygon points="188.16,532.05 194.16,532.05 191.16,537.24" /><polygon points="229.44,530.74 235.44,530.74 232.44,535.93" /><polygon points="258.74,522.18 264.74,522.18 261.74,527.37" /><polygon points="281.46,528.13 287.46,528.13 284.46,533.33" /><polygon points="300.02,535.52 306.02,535.52 303.02,540.71" /><polygon points="315.72,539.05 321.72,539.05 318.72,544.24" /><polygon points="329.31,487.36 335.31,487.36 332.31,492.55" /><polygon points="341.31,492.41 347.31,492.41 344.31,497.60" /><polygon points="352.04,439.61 358.04,439.61 355.04,444.81" /><polygon points="361.74,524.89 367.74,524.89 364.74,530.08" /><polygon points="370.60,421.49 376.60,421.49 373.60,426.68" /><polygon points="378.75,427.02 384.75,427.02 381.75,432.21" /><polygon points="386.30,471.08 392.30,471.08 389.30,476.27" /><polygon points="393.32,389.97 399.32,389.97 396.32,395.17" /><polygon points="399.89,491.15 405.89,491.15 402.89,496.34" /><polygon points="406.07,368.89 412.07,368.89 409.07,374.09" /><polygon points="411.89,397.28 417.89,397.28 414.89,402.48" /><polygon points="417.39,360.91 423.39,360.91 420.39,366.11" /><polygon points="422.61,461.77 428.61,461.77 425.61,466.97" /><polygon points="427.58,390.81 433.58,390.81 430.58,396.00" /><polygon points="432.32,401.18 438.32,401.18 435.32,406.37" /><polygon points="436.84,362.41 442.84,362.41 439.84,367.60" /><polygon points="441.18,412.23 447.18,412.23 444.18,417.42" /><polygon points="445.34,414.03 451.34,414.03 448.34,419.22" /><polygon points="449.33,348.83 455.33,348.83 452.33,354.03" /><polygon points="453.17,367.44 459.17,367.44 456.17,372.63" /><polygon points="456.87,501.22 462.87,501.22 459.87,506.42" /><polygon points="460.45,388.05 466.45,388.05 463.45,393.25" /><polygon points="463.90,378.86 469.90,378.86 466.90,384.06" /><polygon points="467.24,388.74 473.24,388.74 470.24,393.93" /><polygon points="470.47,215.34 476.47,215.34 473.47,220.54" /><polygon points="473.60,304.20 479.60,304.20 476.60,309.39" /><polygon points="476.64,230.03 482.64,230.03 479.64,235.22" /><polygon points="479.60,201.91 485.60,201.91 482.60,207.10" /><polygon points="482.46,542.14 488.46,542.14 485.46,547.34" /><polygon points="485.25,164.78 491.25,164.78 488.25,169.97" /><polygon points="487.97,493.29 493.97,493.29 490.97,498.49" /><polygon points="490.61,253.80 496.61,253.80 493.61,259.00" /><polygon points="493.19,248.26 499.19,248.26 496.19,253.46" /><polygon points="495.71,127.73 501.71,127.73 498.71,132.92" /><polygon points="498.16,527.14 504.16,527.14 501.16,532.33" /><polygon points="500.56,280.61 506.56,280.61 503.56,285.80" /><polygon points="502.90,119.70 508.90,119.70 505.90,124.89" /><polygon points="505.19,362.32 511.19,362.32 508.19,367.52" /><polygon points="507.42,154.57 513.42,154.57 510.42,159.76" /><polygon points="509.61,203.39 515.61,203.39 512.61,208.58" /><polygon points="511.76,488.22 517.76,488.22 514.76,493.42" /><polygon points="513.86,327.47 519.86,327.47 516.86,332.67" /><polygon points="515.91,252.05 521.91,252.05 518.91,257.24" /><polygon points="517.93,531.54 523.93,531.54 520.93,536.74" /><polygon points="519.91,386.72 525.91,386.72 522.91,391.92" /><polygon points="521.85,41.53 527.85,41.53 524.85,46.73" /><polygon points="523.75,170.05 529.75,170.05 526.75,175.25" /><polygon points="525.62,487.28 531.62,487.28 528.62,492.48" /><polygon points="527.45,443.09 533.45,443.09 530.45,448.29" /><polygon points="529.26,436.36 535.26,436.36 532.26,441.56" /><polygon points="531.03,383.96 537.03,383.96 534.03,389.15" /><polygon points="532.77,303.75 538.77,303.75 535.77,308.94" /><polygon points="534.48,423.80 540.48,423.80 537.48,429.00" /><polygon points="536.16,207.74 542.16,207.74 539.16,212.93" /><polygon points="537.82,285.88 543.82,285.88 540.82,291.08" /><polygon points="539.45,60.35 545.45,60.35 542.45,65.54" /><polygon points="541.05,474.34 547.05,474.34 544.05,479.54" /><polygon points="542.63,157.76 548.63,157.76 545.63,162.95" /><polygon points="544.18,192.45 550.18,192.45 547.18,197.65" /><polygon points="545.71,200.29 551.71,200.29 548.71,205.49" /><polygon points="547.22,23.62 553.22,23.62 550.22,28.82" /><polygon points="548.71,38.81 554.71,38.81 551.71,44.01" /><polygon points="550.17,22.09 556.17,22.09 553.17,27.28" /><polygon points="553.04,382.79 559.04,382.79 556.04,387.99" /><polygon points="555.83,354.18 561.83,354.18 558.83,359.38" /><polygon points="558.55,176.33 564.55,176.33 561.55,181.53" /><polygon points="559.88,397.61 565.88,397.61 562.88,402.81" /><polygon points="561.19,127.77 567.19,127.77 564.19,132.97" /><polygon points="565.04,280.75 571.04,280.75 568.04,285.94" /><polygon points="567.52,18.66 573.52,18.66 570.52,23.85" /><polygon points="569.94,57.86 575.94,57.86 572.94,63.05" /><polygon points="573.48,268.83 579.48,268.83 576.48,274.02" /><polygon points="576.89,497.20 582.89,497.20 579.89,502.39" /><polygon points="579.10,126.75 585.10,126.75 582.10,131.95" /><polygon points="580.19,132.43 586.19,132.43 583.19,137.62" /><polygon points="581.27,31.79 587.27,31.79 584.27,36.99" /></g><g stroke="black"><line x1="50.00" x2="50.00" y1="550.00" y2="560.00" /><line x1="284.46" x2="284.46" y1="550.00" y2="560.00" /><line x1="518.91" x2="518.91" y1="550.00" y2="560.00" /><line x1="120.58" x2="120.58" y1="550.00" y2="555.00" /><line x1="161.86" x2="161.86" y1="550.00" y2="555.00" /><line x1="191.16" x2="191.16" y1="550.00" y2="555.00" /><line x1="213.88" x2="213.88" y1="550.00" y2="555.00" /><line x1="232.44" x2="232.44" y1="550.00" y2="555.00" /><line x1="248.14" x2="248.14" y1="550.00" y2="555.00" /><line x1="261.74" x2="261.74" y1="550.00" y2="555.00" /><line x1="273.73" x2="273.73" y1="550.00" y2="555.00" /><line x1="355.04" x2="355.04" y1="550.00" y2="555.00" /><line x1="396.32" x2="396.32" y1="550.00" y2="555.00" /><line x1="425.61" x2="425.61" y1="550.00" y2="555.00" /><line x1="448.34" x2="448.34" y1="550.00" y2="555.00" /><line x1="466.90" x2="466.90" y1="550.00" y2="555.00" /><line x1="482.60" x2="482.60" y1="550.00" y2="555.00" /><line x1="496.19" x2="496.19" y1="550.00" y2="555.00" /><line x1="508.19" x2="508.19" y1="550.00" y2="555.00" /><line x1="589.49" x2="589.49" y1="550.00" y2="555.00" /><g fill="black" font-family="Arial, sans-serif" font-size="10" stroke="none" text-anchor="middle"><text x="50.00" y="570.00">1.00</text><text x="284.46" y="570.00">10.00</text><text x="518.91" y="570.00">100.00</text></g><line x1="50.00" x2="590.00" y1="550.00" y2="550.00" /></g><g stroke="black"><line x1="50.00" x2="40.00" y1="497.48" y2="497.48" /><line x1="50.00" x2="40.00" y1="444.42" y2="444.42" /><line x1="50.00" x2="40.00" y1="391.37" y2="391.37" /><line x1="50.00" x2="40.00" y1="338.32" y2="338.32" /><line x1="50.00" x2="40.00" y1="285.27" y2="285.27" /><line x1="50.00" x2="40.00" y1="232.21" y2="232.21" /><line x1="50.00" x2="40.00" y1="179.16" y2="179.16" /><line x1="50.00" x2="40.00" y1="126.11" y2="126.11" /><line x1="50.00" x2="40.00" y1="73.05" y2="73.05" /><line x1="50.00" x2="40.00" y1="20.00" y2="20.00" /><line x1="50.00" x2="45.00" y1="524.00" y2="524.00" /><line x1="50.00" x2="45.00" y1="470.95" y2="470.95" /><line x1="50.00" x2="45.00" y1="417.90" y2="417.90" /><line x1="50.00" x2="45.00" y1="364.84" y2="364.84" /><line x1="50.00" x2="45.00" y1="311.79" y2="311.79" /><line x1="50.00" x2="45.00" y1="258.74" y2="258.74" /><line x1="50.00" x2="45.00" y1="205.69" y2="205.69" /><line x1="50.00" x2="45.00" y1="152.63" y2="152.63" /><line x1="50.00" x2="45.00" y1="99.58" y2="99.58" /><line x1="50.00" x2="45.00" y1="46.53" y2="46.53" /><g fill="black" font-family="Arial, sans-serif" font-size="10" stroke="none" text-anchor="end"><text x="35.00" y="497.48">10.00</text><text x="35.00" y="444.42">20.00</text><text x="35.00" y="391.37">30.00</text><text x="35.00" y="338.32">40.00</text><text x="35.00" y="285.27">50.00</text><text x="35.00" y="232.21">60.00</text><text x="35.00" y="179.16">70.00</text><text x="35.00" y="126.11">80.00</text><text x="35.00" y="73.05">90.00</text><text x="35.00" y="20.00">100.00</text></g><line x1="50.00" x2="50.00" y1="550.00" y2="20.00" /></g></g></svg>